<?xml version="1.0" encoding="utf-8"?><svg xmlns="http://www.w3.org/2000/svg" xmlns:xlink="http://www.w3.org/1999/xlink" width="1440" height="821" preserveAspectRatio="xMidYMid" viewBox="0 0 1440 821" style="z-index:1;margin-right:-2px;display:block;background-repeat-y:initial;background-repeat-x:initial;background-color:rgb(255, 255, 255);animation-play-state:paused" ><g transform="translate(720,410.5) scale(1,1) translate(-720,-410.5)" style="transform:matrix(1, 0, 0, 1, 0, 0);animation-play-state:paused" ><path id="path0" d="M 332.0769259582363 473.29111768764017
c 0 30.405348310307115 -7.439606501458123 8.733451110407364 -16.173057611865488 8.733451110407364
S 299.7308107345053 503.69646599794726 299.7308107345053 473.29111768764017
s 7.439606501458123 -8.733451110407364 16.173057611865488 -8.733451110407364
S 332.0769259582363 442.8857693773331 332.0769259582363 473.29111768764017
z" fill="none" stroke="none" style="animation-play-state:paused" ></path>


<circle cx="0" cy="0" r="4.025835420054162" fill="#51cacc" transform="translate(311.7511291503906 463.14215087890625)" style="animation-play-state:paused" ></circle>
<path id="path1" d="M 1363.817552760136 582.7331389609584
c 0 32.20570467192551 -7.880119228237092 9.25057474619137 -17.13069397442846 9.25057474619137
S 1329.5561648112794 614.938843632884 1329.5561648112794 582.7331389609584
s 7.880119228237092 -9.25057474619137 17.13069397442846 -9.25057474619137
S 1363.817552760136 550.5274342890328 1363.817552760136 582.7331389609584
z" fill="none" stroke="none" style="animation-play-state:paused" ></path>


<circle cx="0" cy="0" r="6.125862696617845" fill="#ff708e" transform="translate(1363.1376953125 570.5333862304688)" style="animation-play-state:paused" ></circle>
<path id="path2" d="M 59.70090802528189 666.3654701898088
c 0 19.703289058160887 -4.82101753550745 5.659455367769617 -10.480472903277068 5.659455367769617
S 38.739962218727754 686.0687592479696 38.739962218727754 666.3654701898088
s 4.82101753550745 -5.659455367769617 10.480472903277068 -5.659455367769617
S 59.70090802528189 646.6621811316479 59.70090802528189 666.3654701898088
z" fill="none" stroke="none" style="animation-play-state:paused" ></path>


<circle cx="0" cy="0" r="5.009467837552889" fill="#9df871" transform="translate(55.15375900268555 657.1914672851562)" style="animation-play-state:paused" ></circle>
<path id="path3" d="M 655.0658311660239 474.06037857011347
c 0 22.38132854065763 -5.476282515267291 6.428679474444213 -11.904961989711504 6.428679474444213
S 631.2559071866009 496.4417071107711 631.2559071866009 474.06037857011347
s 5.476282515267291 -6.428679474444213 11.904961989711504 -6.428679474444213
S 655.0658311660239 451.6790500294558 655.0658311660239 474.06037857011347
z" fill="none" stroke="none" style="animation-play-state:paused" ></path>


<circle cx="0" cy="0" r="7.4766826211844055" fill="#ff708e" transform="translate(645.215087890625 480.98370361328125)" style="animation-play-state:paused" ></circle>
<path id="path4" d="M 1004.4520483189618 282.11861997272945
c 0 34.86770991614001 -8.531460936927873 10.015193273784897 -18.54665421071277 10.015193273784897
S 967.3587398975363 316.9863298888695 967.3587398975363 282.11861997272945
s 8.531460936927873 -10.015193273784897 18.54665421071277 -10.015193273784897
S 1004.4520483189618 247.25091005658945 1004.4520483189618 282.11861997272945
z" fill="none" stroke="none" style="animation-play-state:paused" ></path>


<circle cx="0" cy="0" r="7.269938519717256" fill="#51cacc" transform="translate(1004.4235229492188 278.8282165527344)" style="animation-play-state:paused" ></circle>
<path id="path5" d="M 217.12893089164663 238.58993104538501
c 0 33.02688426922713 -8.081046150981107 9.486445481586518 -17.567491632567624 9.486445481586518
S 181.99394762651139 271.61681531461215 181.99394762651139 238.58993104538501
s 8.081046150981107 -9.486445481586518 17.567491632567624 -9.486445481586518
S 217.12893089164663 205.56304677615788 217.12893089164663 238.58993104538501
z" fill="none" stroke="none" style="animation-play-state:paused" ></path>


<circle cx="0" cy="0" r="6.716307833438944" fill="#9df871" transform="translate(182.00242614746094 236.82778930664062)" style="animation-play-state:paused" ></circle>
<path id="path6" d="M 1098.7470507058656 272.6164918335126
c 0 33.7531393032815 -8.25874685080292 9.695050650942559 -17.953797501745477 9.695050650942559
S 1062.8394557023748 306.3696311367941 1062.8394557023748 272.6164918335126
s 8.25874685080292 -9.695050650942559 17.953797501745477 -9.695050650942559
S 1098.7470507058656 238.8633525302311 1098.7470507058656 272.6164918335126
z" fill="none" stroke="none" style="animation-play-state:paused" ></path>


<circle cx="0" cy="0" r="5.572376702298115" fill="#51cacc" transform="translate(1095.42626953125 290.57525634765625)" style="animation-play-state:paused" ></circle>
<path id="path7" d="M 161.2242487413751 785.9904780985461
c 0 19.567259857760707 -4.7877337949840015 5.620383150633394 -10.408116945617396 5.620383150633394
S 140.40801485014032 805.5577379563068 140.40801485014032 785.9904780985461
s 4.7877337949840015 -5.620383150633394 10.408116945617396 -5.620383150633394
S 161.2242487413751 766.4232182407853 161.2242487413751 785.9904780985461
z" fill="none" stroke="none" style="animation-play-state:paused" ></path>


<circle cx="0" cy="0" r="7.948183154002504" fill="#e0ff77" transform="translate(156.6454620361328 795.0477905273438)" style="animation-play-state:paused" ></circle>
<path id="path8" d="M 1005.0010971082322 375.40448472318764
c 0 22.089774518161544 -5.404944828911867 6.344935233940018 -11.749880062851885 6.344935233940018
S 981.5013369825285 397.4942592413492 981.5013369825285 375.40448472318764
s 5.404944828911867 -6.344935233940018 11.749880062851885 -6.344935233940018
S 1005.0010971082322 353.3147102050261 1005.0010971082322 375.40448472318764
z" fill="none" stroke="none" style="animation-play-state:paused" ></path>


<circle cx="0" cy="0" r="7.3998125749676165" fill="#51cacc" transform="translate(996.550537109375 367.84796142578125)" style="animation-play-state:paused" ></circle>
<path id="path9" d="M 785.615992998084 455.62851362014385
c 0 26.741533077347118 -6.543141072116847 7.681078649876301 -14.224219721993148 7.681078649876301
S 757.1675535540978 482.370046697491 757.1675535540978 455.62851362014385
s 6.543141072116847 -7.681078649876301 14.224219721993148 -7.681078649876301
S 785.615992998084 428.8869805427967 785.615992998084 455.62851362014385
z" fill="none" stroke="none" style="animation-play-state:paused" ></path>


<circle cx="0" cy="0" r="4.903397668956162" fill="#9df871" transform="translate(757.3665771484375 462.45684814453125)" style="animation-play-state:paused" ></circle>
<path id="path10" d="M 1136.0060058061142 492.3435140211655
c 0 34.23058392841344 -8.375568408016052 9.832189000714498 -18.20775740873055 9.832189000714498
S 1099.5904909886533 526.5740979495789 1099.5904909886533 492.3435140211655
s 8.375568408016052 -9.832189000714498 18.20775740873055 -9.832189000714498
S 1136.0060058061142 458.1129300927521 1136.0060058061142 492.3435140211655
z" fill="none" stroke="none" style="animation-play-state:paused" ></path>


<circle cx="0" cy="0" r="6.183249799230458" fill="#e0ff77" transform="translate(1106.0921630859375 475.293212890625)" style="animation-play-state:paused" ></circle>
<path id="path11" d="M 180.48180508696825 815.0029716238812
c 0 26.785374220925746 -6.553868160439278 7.693671318776545 -14.247539479215822 7.693671318776545
S 151.98672612853662 841.7883458448069 151.98672612853662 815.0029716238812
s 6.553868160439278 -7.693671318776545 14.247539479215822 -7.693671318776545
S 180.48180508696825 788.2175974029554 180.48180508696825 815.0029716238812
z" fill="none" stroke="none" style="animation-play-state:paused" ></path>


<circle cx="0" cy="0" r="4.848523326202005" fill="#de9dd6" transform="translate(152.06982421875 810.313720703125)" style="animation-play-state:paused" ></circle>
<path id="path12" d="M 350.9115111732255 224.63191720164073
c 0 21.960871792722187 -5.373404800346918 6.307909983015948 -11.681314783362867 6.307909983015948
S 327.5488816064997 246.59278899436293 327.5488816064997 224.63191720164073
s 5.373404800346918 -6.307909983015948 11.681314783362867 -6.307909983015948
S 350.9115111732255 202.67104540891853 350.9115111732255 224.63191720164073
z" fill="none" stroke="none" style="animation-play-state:paused" ></path>


<circle cx="0" cy="0" r="6.64812445377766" fill="#9df871" transform="translate(343.0025329589844 216.7733154296875)" style="animation-play-state:paused" ></circle>
<path id="path13" d="M 442.8100838892757 457.53006435097075
c 0 32.20974554277765 -7.881107951956232 9.251735421861664 -17.132843373817895 9.251735421861664
S 408.54439714163993 489.7398098937484 408.54439714163993 457.53006435097075
s 7.881107951956232 -9.251735421861664 17.132843373817895 -9.251735421861664
S 442.8100838892757 425.3203188081931 442.8100838892757 457.53006435097075
z" fill="none" stroke="none" style="animation-play-state:paused" ></path>


<circle cx="0" cy="0" r="7.786572227844368" fill="#9df871" transform="translate(416.5221252441406 472.0627136230469)" style="animation-play-state:paused" ></circle>
<path id="path14" d="M 509.6615689107131 394.88092089162046
c 0 29.0879173574306 -7.117256374690466 8.35504009202794 -15.472296466718404 8.35504009202794
S 478.7169759772763 423.9688382490511 478.7169759772763 394.88092089162046
s 7.117256374690466 -8.35504009202794 15.472296466718404 -8.35504009202794
S 509.6615689107131 365.79300353418984 509.6615689107131 394.88092089162046
z" fill="none" stroke="none" style="animation-play-state:paused" ></path>


<circle cx="0" cy="0" r="7.800746004698766" fill="#ff708e" transform="translate(478.87091064453125 388.4411926269531)" style="animation-play-state:paused" ></circle>
<path id="path15" d="M 245.25876261428314 6.723812148794696
c 0 24.712197270172272 -6.046601459723002 7.098184322283525 -13.144785782006528 7.098184322283525
S 218.9691910502701 31.436009418966968 218.9691910502701 6.723812148794696
s 6.046601459723002 -7.098184322283525 13.144785782006528 -7.098184322283525
S 245.25876261428314 -17.988385121377576 245.25876261428314 6.723812148794696
z" fill="none" stroke="none" style="animation-play-state:paused" ></path>


<circle cx="0" cy="0" r="4.50882974315752" fill="#de9dd6" transform="translate(219.99005126953125 18.16233253479004)" style="animation-play-state:paused" ></circle>
<path id="path16" d="M 139.95777198969452 718.1557782825956
c 0 23.93040690979463 -5.855312328992302 6.873627516643139 -12.728939845635441 6.873627516643139
S 114.49989229842363 742.0861851923903 114.49989229842363 718.1557782825956
s 5.855312328992302 -6.873627516643139 12.728939845635441 -6.873627516643139
S 139.95777198969452 694.225371372801 139.95777198969452 718.1557782825956
z" fill="none" stroke="none" style="animation-play-state:paused" ></path>


<circle cx="0" cy="0" r="7.664353867613627" fill="#ff708e" transform="translate(139.87802124023438 722.4818725585938)" style="animation-play-state:paused" ></circle>
<path id="path17" d="M 177.88949442673135 245.6907447192345
c 0 26.93274486236595 -6.589926934408689 7.736001183871071 -14.32592811827976 7.736001183871071
S 149.23763819017182 272.62348958160044 149.23763819017182 245.6907447192345
s 6.589926934408689 -7.736001183871071 14.32592811827976 -7.736001183871071
S 177.88949442673135 218.75799985686854 177.88949442673135 245.6907447192345
z" fill="none" stroke="none" style="animation-play-state:paused" ></path>


<circle cx="0" cy="0" r="5.090465974816119" fill="#9df871" transform="translate(149.32115173339844 240.97006225585938)" style="animation-play-state:paused" ></circle>
<path id="path18" d="M 193.86932736812 677.0150189985523
c 0 36.244507058983366 -8.868336833581035 10.410656282899478 -19.27899311648051 10.410656282899478
S 155.31134113515898 713.2595260575356 155.31134113515898 677.0150189985523
s 8.868336833581035 -10.410656282899478 19.27899311648051 -10.410656282899478
S 193.86932736812 640.7705119395689 193.86932736812 677.0150189985523
z" fill="none" stroke="none" style="animation-play-state:paused" ></path>


<circle cx="0" cy="0" r="4.630761220166617" fill="#e0ff77" transform="translate(193.4344940185547 688.207763671875)" style="animation-play-state:paused" ></circle>
<path id="path19" d="M 178.91580762000345 717.6811360468095
c 0 33.72362441213703 -8.251525122118634 9.686572969443615 -17.93809809156225 9.686572969443615
S 143.03961143687897 751.4047604589465 143.03961143687897 717.6811360468095
s 8.251525122118634 -9.686572969443615 17.93809809156225 -9.686572969443615
S 178.91580762000345 683.9575116346724 178.91580762000345 717.6811360468095
z" fill="none" stroke="none" style="animation-play-state:paused" ></path>


<circle cx="0" cy="0" r="6.94756709059136" fill="#51cacc" transform="translate(143.0398712158203 717.547607421875)" style="animation-play-state:paused" ></circle>
<path id="path20" d="M 1206.840561091867 642.1550079247725
c 0 36.66493427398684 -8.97120732235848 10.531417291464304 -19.502624613822782 10.531417291464304
S 1167.8353118642215 678.8199421987593 1167.8353118642215 642.1550079247725
s 8.97120732235848 -10.531417291464304 19.502624613822782 -10.531417291464304
S 1206.840561091867 605.4900736507856 1206.840561091867 642.1550079247725
z" fill="none" stroke="none" style="animation-play-state:paused" ></path>


<circle cx="0" cy="0" r="4.289686088437679" fill="#de9dd6" transform="translate(1167.8369140625 642.974853515625)" style="animation-play-state:paused" ></circle>
<path id="path21" d="M 913.945221028173 761.8714507408041
c 0 31.27285088654467 -7.651867770111993 8.982627382305385 -16.634495152417376 8.982627382305385
S 880.6762307233383 793.1443016273488 880.6762307233383 761.8714507408041
s 7.651867770111993 -8.982627382305385 16.634495152417376 -8.982627382305385
S 913.945221028173 730.5985998542594 913.945221028173 761.8714507408041
z" fill="none" stroke="none" style="animation-play-state:paused" ></path>


<circle cx="0" cy="0" r="4.7079148791364025" fill="#9df871" transform="translate(913.6558227539062 770.5914306640625)" style="animation-play-state:paused" ></circle>
<path id="path22" d="M 341.20369409360853 65.95849368379449
c 0 31.833674835827836 -7.789090651319576 9.143715112418635 -16.93280576373821 9.143715112418635
S 307.33808256613213 97.79216851962232 307.33808256613213 65.95849368379449
s 7.789090651319576 -9.143715112418635 16.93280576373821 -9.143715112418635
S 341.20369409360853 34.12481884796665 341.20369409360853 65.95849368379449
z" fill="none" stroke="none" style="animation-play-state:paused" ></path>


<circle cx="0" cy="0" r="5.6400611717699425" fill="#51cacc" transform="translate(320.9093933105469 76.0195083618164)" style="animation-play-state:paused" ></circle>
<path id="path23" d="M 396.24306228944744 34.47398792887033
c 0 30.987777157518348 -7.582115687477892 8.90074450269144 -16.482860190169333 8.90074450269144
S 363.27734190910877 65.46176508638868 363.27734190910877 34.47398792887033
s 7.582115687477892 -8.90074450269144 16.482860190169333 -8.90074450269144
S 396.24306228944744 3.486210771351981 396.24306228944744 34.47398792887033
z" fill="none" stroke="none" style="animation-play-state:paused" ></path>


<circle cx="0" cy="0" r="5.953970325505599" fill="#51cacc" transform="translate(395.9573059082031 25.84175682067871)" style="animation-play-state:paused" ></circle>
<path id="path24" d="M 1319.0462958419216 177.75487236376838
c 0 28.859652333180833 -7.061404294288926 8.289474606339176 -15.350878900628102 8.289474606339176
S 1288.3445380406656 206.61452469694922 1288.3445380406656 177.75487236376838
s 7.061404294288926 -8.289474606339176 15.350878900628102 -8.289474606339176
S 1319.0462958419216 148.89522003058755 1319.0462958419216 177.75487236376838
z" fill="none" stroke="none" style="animation-play-state:paused" ></path>


<circle cx="0" cy="0" r="4.4470294618412005" fill="#9df871" transform="translate(1308.3748779296875 187.8815460205078)" style="animation-play-state:paused" ></circle>
<path id="path25" d="M 667.160978766657 27.48018136993089
c 0 31.43783253632505 -7.692235620590171 9.030015728518897 -16.72225134910907 9.030015728518897
S 633.7164760684387 58.918013906255936 633.7164760684387 27.48018136993089
s 7.692235620590171 -9.030015728518897 16.72225134910907 -9.030015728518897
S 667.160978766657 -3.957651166394161 667.160978766657 27.48018136993089
z" fill="none" stroke="none" style="animation-play-state:paused" ></path>


<circle cx="0" cy="0" r="6.535368489201255" fill="#51cacc" transform="translate(640.2553100585938 12.25405216217041)" style="animation-play-state:paused" ></circle>
<path id="path26" d="M 893.2071849677081 764.7305544893238
c 0 24.97844732649131 -6.111747750098936 7.174660402290057 -13.286408152388994 7.174660402290057
S 866.6343686629302 789.7090018158151 866.6343686629302 764.7305544893238
s 6.111747750098936 -7.174660402290057 13.286408152388994 -7.174660402290057
S 893.2071849677081 739.7521071628325 893.2071849677081 764.7305544893238
z" fill="none" stroke="none" style="animation-play-state:paused" ></path>


<circle cx="0" cy="0" r="6.872861497095559" fill="#9df871" transform="translate(893.15283203125 760.9953002929688)" style="animation-play-state:paused" ></circle>
<path id="path27" d="M 466.557431781073 437.2466205047939
c 0 27.403476517021385 -6.705105956292466 7.871211339995504 -14.576317296287971 7.871211339995504
S 437.404797188497 464.65009702181527 437.404797188497 437.2466205047939
s 6.705105956292466 -7.871211339995504 14.576317296287971 -7.871211339995504
S 466.557431781073 409.8431439877725 466.557431781073 437.2466205047939
z" fill="none" stroke="none" style="animation-play-state:paused" ></path>


<circle cx="0" cy="0" r="6.302774244272015" fill="#e0ff77" transform="translate(458.4725341796875 426.00604248046875)" style="animation-play-state:paused" ></circle>
<path id="path28" d="M 628.4367925244414 566.6987499652583
c 0 35.935748926125754 -8.792789630860556 10.32197043622761 -19.114760067088167 10.32197043622761
S 590.2072723902652 602.634498891384 590.2072723902652 566.6987499652583
s 8.792789630860556 -10.32197043622761 19.114760067088167 -10.32197043622761
S 628.4367925244414 530.7630010391326 628.4367925244414 566.6987499652583
z" fill="none" stroke="none" style="animation-play-state:paused" ></path>


<circle cx="0" cy="0" r="5.093631099191913" fill="#9df871" transform="translate(593.0618896484375 585.5033569335938)" style="animation-play-state:paused" ></circle>
<path id="path29" d="M 709.4666175048156 517.5777069890728
c 0 32.98587651358805 -8.07101233843112 9.474666658158272 -17.54567899658939 9.474666658158272
S 674.375259511637 550.5635835026609 674.375259511637 517.5777069890728
s 8.07101233843112 -9.474666658158272 17.54567899658939 -9.474666658158272
S 709.4666175048156 484.59183047548476 709.4666175048156 517.5777069890728
z" fill="none" stroke="none" style="animation-play-state:paused" ></path>


<circle cx="0" cy="0" r="5.688436434086075" fill="#51cacc" transform="translate(677.5023193359375 500.05926513671875)" style="animation-play-state:paused" ></circle></g></svg>